<?xml version="1.0" standalone="no"?>
<!DOCTYPE svg PUBLIC "-//W3C//DTD SVG 20010904//EN"
 "http://www.w3.org/TR/2001/REC-SVG-20010904/DTD/svg10.dtd">
<svg version="1.0" xmlns="http://www.w3.org/2000/svg"
 width="512.000000pt" height="512.000000pt" viewBox="0 0 512.000000 512.000000"
 preserveAspectRatio="xMidYMid meet">

<g transform="translate(0.000000,512.000000) scale(0.100000,-0.100000)"
fill="grey" stroke="none">
<path d="M1464 4996 c-60 -28 -115 -80 -146 -139 l-23 -42 -5 -710 -5 -710
-532 -5 c-520 -5 -532 -5 -560 -26 -15 -11 -38 -38 -50 -60 -22 -38 -23 -48
-23 -312 0 -252 1 -276 20 -312 11 -21 34 -49 52 -62 l33 -23 530 -5 530 -5 3
-122 3 -123 -71 0 c-113 0 -188 -45 -225 -133 -28 -69 -30 -71 -68 -90 -37
-19 -37 -19 -89 7 -97 48 -194 31 -274 -49 -86 -86 -104 -178 -53 -280 33 -67
22 -92 -62 -132 -79 -37 -123 -87 -140 -156 -17 -72 -7 -167 24 -220 33 -55
43 -64 114 -92 47 -18 62 -30 77 -60 15 -30 17 -41 7 -54 -52 -71 -65 -164
-32 -229 10 -20 46 -62 78 -94 87 -82 160 -98 249 -53 35 18 58 24 80 20 38
-7 49 -18 69 -76 17 -48 63 -101 110 -127 18 -10 63 -19 115 -22 l85 -5 5 -95
c5 -81 10 -103 35 -149 16 -29 47 -68 68 -87 79 -67 20 -64 1171 -64 l1041 0
50 24 c58 27 118 84 148 141 21 38 22 56 27 400 l5 360 480 5 c529 6 513 3
590 71 21 19 49 56 61 84 22 46 24 63 24 221 0 171 0 171 -31 232 -33 68 -71
105 -139 136 -43 20 -62 21 -517 24 l-473 3 0 369 0 370 189 0 190 0 55 -58
c140 -146 342 -182 525 -93 102 49 211 170 211 233 0 17 -10 39 -25 53 -23 24
-30 25 -149 25 -117 0 -127 2 -152 24 -36 31 -38 84 -5 120 22 23 30 25 158
28 128 3 136 4 154 27 27 33 24 70 -9 122 -84 131 -229 209 -388 209 -133 0
-273 -66 -347 -163 l-28 -37 -190 0 -189 0 2 418 3 417 290 5 290 5 50 27 c68
35 128 97 162 166 25 51 28 67 28 162 0 96 -3 110 -28 158 -38 72 -86 123
-149 158 -50 27 -60 29 -164 29 l-111 0 -44 39 c-80 68 -166 104 -269 109
l-65 4 -7 46 c-8 61 -53 141 -101 183 -79 67 -20 64 -1166 64 l-1036 0 -51
-24z m2137 -149 c42 -28 69 -80 69 -132 0 -37 -5 -43 -51 -74 -28 -19 -69 -60
-91 -92 l-40 -56 -62 -5 c-111 -9 -209 -76 -258 -176 -19 -38 -23 -63 -23
-132 0 -102 24 -160 94 -227 71 -68 124 -83 296 -83 l145 0 0 -1035 0 -1035
-937 -2 -938 -3 -47 -23 c-54 -27 -123 -97 -146 -150 -24 -56 -30 -311 -8
-385 21 -74 69 -133 136 -171 l55 -31 943 -3 943 -2 -3 -343 c-3 -335 -3 -343
-25 -373 -48 -68 16 -64 -1100 -64 -988 0 -1009 0 -1041 20 -18 11 -41 34 -52
52 -20 32 -20 51 -20 1150 l1 1118 602 2 602 3 34 24 c65 47 71 74 71 372 0
259 -1 267 -23 310 -15 27 -38 52 -63 66 l-39 23 -593 0 -592 0 2 693 3 692
24 34 c45 63 -11 60 1092 61 l1006 0 34 -23z m403 -311 c25 -15 58 -43 73 -63
66 -86 101 -102 150 -68 27 19 93 29 138 21 20 -4 53 -23 75 -42 99 -90 90
-252 -19 -329 l-43 -30 -492 0 -493 0 -35 27 c-117 89 -62 279 81 280 20 1 55
-3 78 -7 54 -10 64 -1 103 81 34 71 90 125 154 148 64 24 173 16 230 -18z
m-2044 -1546 l0 -250 -842 2 -843 3 -3 235 c-1 129 0 240 2 247 4 10 175 13
846 13 l840 0 0 -250z m635 228 c3 -13 4 -124 3 -248 l-3 -225 -242 -3 -243
-2 0 250 0 250 240 0 240 0 5 -22z m2083 -153 c28 -9 54 -20 57 -25 3 -4 -20
-14 -50 -20 -68 -14 -131 -60 -165 -120 -34 -61 -35 -165 -2 -227 37 -72 90
-106 197 -128 l30 -7 -28 -14 c-122 -65 -296 -17 -375 102 -110 165 -26 385
168 445 42 12 113 10 168 -6z m-533 -280 l0 -85 -157 0 -158 0 0 85 0 85 158
0 157 0 0 -85z m-2867 -607 c9 -9 12 -70 12 -213 l0 -200 -72 -1 c-101 -2
-174 -31 -242 -97 -73 -73 -99 -131 -104 -237 -5 -109 19 -177 88 -253 66 -72
147 -109 253 -115 l77 -5 0 -184 c0 -108 -4 -192 -10 -204 -8 -15 -21 -19 -60
-19 -70 0 -78 6 -109 74 -62 137 -206 199 -316 137 -60 -34 -63 -33 -116 15
-27 26 -49 53 -49 61 0 7 12 31 26 53 75 114 13 286 -121 335 -73 27 -75 30
-75 100 0 70 10 84 75 106 98 34 170 159 146 254 -6 24 -20 59 -31 78 -25 42
-17 71 30 110 39 33 51 33 115 2 124 -61 278 3 326 136 14 39 30 64 43 69 32
13 100 12 114 -2z m2812 -768 l0 -230 -1115 0 c-1211 0 -1158 -2 -1203 55 -20
26 -22 39 -22 172 0 109 4 151 15 173 32 63 -38 59 1198 60 l1127 0 0 -230z
m699 204 c44 -37 53 -80 49 -231 -3 -123 -5 -133 -27 -157 -40 -42 -78 -47
-331 -44 l-235 3 -3 228 -2 227 259 0 259 0 31 -26z m-3511 -16 c8 -8 12 -65
12 -190 l0 -178 -27 -11 c-16 -6 -46 -8 -67 -4 -199 31 -240 284 -61 378 36
19 126 22 143 5z"/>
<path d="M2358 4724 c-50 -27 -48 -106 2 -131 17 -9 79 -13 200 -13 190 0 218
6 234 51 13 39 0 77 -34 94 -42 21 -362 21 -402 -1z"/>
<path d="M2360 527 c-52 -26 -52 -105 0 -132 42 -22 358 -22 400 0 52 27 52
106 0 132 -35 18 -365 18 -400 0z"/>
<path d="M455 3060 c-49 -19 -64 -82 -30 -120 26 -28 79 -36 110 -16 89 59 19
177 -80 136z"/>
<path d="M658 3054 c-51 -27 -50 -102 2 -129 25 -13 106 -15 570 -15 l542 0
29 29 c37 37 37 65 0 102 l-29 29 -544 0 c-461 -1 -547 -3 -570 -16z"/>
<path d="M4445 1616 c-93 -42 -131 -155 -84 -253 29 -61 90 -95 166 -94 51 0
60 -3 95 -34 45 -41 67 -43 104 -12 39 34 37 78 -4 120 -29 29 -32 39 -32 92
0 80 -29 137 -84 170 -48 28 -112 32 -161 11z m90 -166 c0 -29 -32 -41 -41
-16 -9 24 4 48 23 44 12 -2 18 -12 18 -28z"/>
<path d="M525 4523 c-88 -20 -158 -72 -198 -148 -19 -34 -22 -56 -22 -146 0
-102 1 -107 39 -183 25 -52 59 -99 100 -140 64 -65 205 -159 267 -178 34 -10
43 -7 115 31 224 120 349 290 349 476 0 120 -47 212 -133 262 -40 24 -58 28
-122 28 -61 0 -85 -5 -129 -26 l-53 -27 -52 23 c-52 24 -126 36 -161 28z m452
-164 c78 -65 54 -225 -52 -338 -48 -52 -161 -131 -186 -131 -25 0 -114 57
-170 108 -120 110 -155 261 -78 343 27 29 33 31 80 27 35 -4 63 -15 94 -37 53
-38 90 -39 136 -5 70 53 136 66 176 33z"/>
</g>
</svg>
