<?xml version="1.0" standalone="no"?>
<!DOCTYPE svg PUBLIC "-//W3C//DTD SVG 20010904//EN"
 "http://www.w3.org/TR/2001/REC-SVG-20010904/DTD/svg10.dtd">
<svg version="1.0" xmlns="http://www.w3.org/2000/svg"
 width="512.000000pt" height="512.000000pt" viewBox="0 0 512.000000 512.000000"
 preserveAspectRatio="xMidYMid meet">

<g transform="translate(0.000000,512.000000) scale(0.100000,-0.100000)"
fill="#000000" stroke="none">
<path d="M884 3765 c-294 -64 -473 -383 -374 -669 70 -203 269 -346 484 -346
176 0 331 84 432 235 197 294 25 706 -323 780 -82 18 -138 18 -219 0z"/>
<path d="M4014 3765 c-244 -53 -420 -289 -401 -540 23 -309 314 -527 619 -464
168 35 322 171 378 335 100 289 -80 606 -379 670 -80 17 -137 17 -217 -1z"/>
<path d="M2400 3537 c-216 -73 -350 -260 -350 -487 0 -149 50 -268 154 -368
208 -200 532 -193 726 15 99 106 140 209 140 354 0 184 -87 339 -245 438 -116
73 -293 93 -425 48z"/>
<path d="M484 2774 c-255 -154 -440 -439 -479 -740 l-6 -51 72 -67 c190 -176
450 -301 712 -342 149 -24 397 -15 533 20 56 14 120 32 143 42 l41 16 -31 36
c-32 36 -32 36 -25 121 15 219 118 457 274 636 l69 80 -49 57 c-56 65 -150
142 -233 193 l-57 34 -56 -46 c-64 -52 -169 -104 -252 -124 -30 -7 -98 -13
-150 -13 -148 0 -282 47 -394 138 l-54 45 -58 -35z"/>
<path d="M3614 2774 c-88 -53 -121 -80 -207 -167 l-78 -79 59 -66 c150 -171
247 -372 282 -585 18 -112 14 -152 -20 -191 l-30 -34 41 -16 c23 -10 87 -28
143 -42 136 -35 384 -44 533 -20 263 41 521 165 712 342 l72 67 -6 51 c-32
244 -171 501 -353 649 -37 31 -94 72 -126 91 l-58 35 -54 -45 c-112 -91 -246
-138 -394 -138 -52 0 -120 5 -150 13 -80 19 -208 83 -261 130 l-46 40 -59 -35z"/>
<path d="M2026 2545 c-159 -104 -273 -232 -356 -400 -53 -106 -100 -267 -100
-340 0 -40 4 -47 69 -107 173 -160 403 -276 654 -330 145 -30 389 -30 534 0
253 54 473 165 652 329 l74 67 -7 65 c-15 161 -99 358 -213 501 -69 86 -195
196 -276 239 l-44 24 -53 -42 c-157 -124 -365 -170 -554 -121 -88 22 -196 76
-254 126 -22 19 -44 34 -49 34 -5 0 -40 -20 -77 -45z"/>
</g>
</svg>
