<?xml version="1.0" standalone="no"?>
<!DOCTYPE svg PUBLIC "-//W3C//DTD SVG 20010904//EN"
 "http://www.w3.org/TR/2001/REC-SVG-20010904/DTD/svg10.dtd">
<svg version="1.0" xmlns="http://www.w3.org/2000/svg"
 width="512.000000pt" height="512.000000pt" viewBox="0 0 512.000000 512.000000"
 preserveAspectRatio="xMidYMid meet">

<g transform="translate(0.000000,512.000000) scale(0.100000,-0.100000)"
fill="grey" stroke="none">
<path d="M2331 5023 c-12 -10 -38 -63 -59 -117 l-39 -100 -64 -21 c-35 -12
-99 -38 -142 -58 l-77 -36 -104 45 c-83 35 -109 42 -127 35 -13 -5 -89 -75
-168 -154 -117 -118 -144 -151 -144 -174 0 -15 18 -70 41 -121 l42 -94 -27
-51 c-14 -29 -41 -92 -59 -142 l-32 -90 -98 -38 c-55 -21 -107 -47 -116 -58
-16 -19 -18 -46 -18 -229 0 -183 2 -210 18 -229 9 -12 62 -39 116 -60 l99 -38
23 -67 c12 -37 38 -101 58 -142 l35 -74 -45 -104 c-35 -82 -42 -109 -35 -127
13 -33 304 -319 324 -319 9 0 62 20 118 45 l101 45 61 -32 c34 -17 98 -43 141
-58 l79 -27 38 -99 c21 -54 48 -107 60 -116 19 -16 46 -18 229 -18 183 0 210
2 229 18 12 9 39 62 60 116 l38 99 79 27 c43 15 107 41 141 58 l61 32 101 -45
c56 -25 109 -45 118 -45 20 0 311 286 324 319 7 18 0 45 -36 128 l-45 104 27
52 c14 29 41 92 58 141 l32 89 99 38 c54 21 107 48 117 60 15 19 17 46 17 229
0 183 -2 210 -17 229 -10 11 -62 37 -117 58 l-98 38 -32 90 c-18 50 -45 113
-59 142 l-27 51 42 94 c23 51 41 106 41 121 0 23 -27 56 -144 174 -79 79 -155
149 -168 154 -18 7 -44 0 -128 -36 l-104 -45 -52 27 c-29 14 -92 41 -141 58
l-89 32 -39 99 c-21 55 -47 107 -59 117 -19 15 -46 17 -229 17 -183 0 -210 -2
-229 -17z m389 -230 c18 -49 41 -97 51 -109 11 -11 50 -28 91 -39 39 -10 119
-42 177 -72 58 -29 114 -53 125 -53 10 0 59 18 109 40 l91 41 89 -89 88 -88
-40 -93 c-23 -50 -41 -100 -41 -109 0 -10 22 -61 49 -114 28 -53 61 -134 76
-181 14 -46 33 -91 43 -99 9 -9 56 -30 105 -49 l87 -32 0 -127 0 -127 -94 -37
c-52 -20 -99 -43 -105 -50 -6 -7 -24 -55 -41 -107 -17 -52 -51 -132 -76 -178
-24 -46 -44 -92 -44 -102 0 -10 18 -60 41 -110 l40 -93 -89 -88 -88 -89 -93
40 c-50 23 -99 41 -107 41 -8 0 -58 -22 -112 -49 -54 -27 -137 -61 -185 -76
-99 -30 -101 -31 -148 -152 l-32 -83 -127 0 -127 0 -37 94 c-20 52 -43 99 -50
105 -7 6 -53 24 -103 40 -50 16 -132 50 -182 75 -50 25 -97 46 -105 46 -7 0
-55 -18 -106 -41 l-93 -41 -89 89 -89 89 40 93 c23 50 41 99 41 107 0 8 -21
55 -46 105 -25 50 -59 132 -75 182 -16 50 -34 96 -40 103 -6 7 -53 30 -105 50
l-94 37 0 127 0 127 88 32 c48 19 95 40 104 49 10 8 29 53 43 99 15 47 48 128
76 181 27 53 49 104 49 114 0 9 -18 59 -41 109 l-40 93 88 88 89 89 91 -41
c50 -22 100 -40 111 -40 11 0 57 20 103 44 46 25 127 59 180 76 53 17 103 39
112 48 8 9 29 56 47 105 l33 87 127 0 127 0 33 -87z"/>
<path d="M2364 4400 c-289 -75 -509 -295 -585 -585 -15 -59 -21 -110 -21 -195
0 -143 23 -238 89 -370 40 -81 62 -109 148 -195 86 -86 114 -108 195 -148 128
-64 228 -89 360 -90 210 -2 403 71 551 211 178 167 261 355 261 592 0 374
-245 688 -610 781 -101 26 -288 25 -388 -1z m351 -155 c192 -50 347 -180 430
-360 44 -95 58 -163 58 -270 -1 -107 -22 -194 -68 -284 l-34 -66 -1 207 c0
204 0 207 -24 235 -24 27 -27 28 -140 31 -107 3 -116 5 -116 23 0 11 -6 35
-14 53 -17 40 -55 56 -132 56 l-54 0 0 49 c0 42 -4 53 -26 70 -57 44 -122 9
-131 -71 l-5 -45 -70 -5 c-83 -6 -107 -24 -115 -87 l-6 -41 -109 0 c-108 0
-110 0 -139 -29 l-29 -29 0 -179 -1 -178 -19 35 c-52 100 -69 293 -36 419 60
225 239 405 466 465 74 20 240 20 315 1z m-57 -902 l2 -361 -57 -6 c-32 -3
-83 -3 -113 2 l-55 7 -3 350 c-1 192 0 356 3 363 3 9 32 12 112 10 l108 -3 3
-362z m-388 -28 c0 -147 -4 -265 -9 -265 -5 0 -31 15 -57 33 l-49 32 -3 233
-2 232 60 0 60 0 0 -265z m670 21 l0 -243 -60 -32 -60 -32 0 275 0 276 60 0
60 0 0 -244z"/>
<path d="M412 4041 c-96 -33 -180 -121 -206 -214 -11 -39 -20 -240 -36 -832
-31 -1127 -33 -1073 47 -1229 33 -63 81 -116 445 -481 l408 -411 0 -71 0 -71
-109 -4 c-103 -3 -112 -5 -152 -33 -76 -54 -84 -83 -84 -290 0 -178 0 -180 27
-227 21 -35 41 -53 82 -73 l55 -27 693 7 c425 4 706 11 726 17 41 12 97 60
120 102 14 26 17 58 16 192 -1 196 -6 225 -47 271 -42 48 -99 73 -169 73 l-56
0 -4 432 c-4 413 -6 436 -27 508 -46 153 -86 204 -310 392 -86 73 -236 212
-335 310 -202 201 -230 218 -355 218 -56 0 -79 -5 -129 -31 -34 -17 -75 -47
-91 -67 -22 -25 -32 -32 -35 -21 -3 8 -7 280 -9 604 -4 648 -4 647 -67 781
-37 76 -119 155 -186 178 -62 21 -146 20 -212 -3z m185 -160 c39 -24 76 -87
99 -166 16 -53 19 -131 24 -670 6 -607 6 -610 29 -674 13 -35 45 -96 72 -135
63 -95 235 -283 392 -428 99 -93 133 -118 154 -118 49 1 90 51 77 93 -3 12
-95 112 -204 222 -108 110 -204 214 -213 232 -10 18 -17 53 -17 79 0 41 5 51
39 85 35 35 44 39 90 39 29 0 62 -5 74 -11 12 -7 87 -78 167 -159 80 -81 226
-216 325 -300 196 -167 215 -186 247 -245 49 -93 51 -114 55 -562 l4 -423
-143 0 c-79 0 -254 -3 -390 -7 l-248 -6 0 104 0 103 -408 411 c-225 225 -423
431 -440 456 -58 87 -74 156 -73 319 1 167 39 1562 44 1631 5 58 34 101 89
128 53 26 113 27 155 2z m1677 -3310 c3 -5 9 -71 12 -148 6 -119 5 -141 -9
-154 -14 -14 -98 -17 -693 -23 -643 -7 -679 -7 -691 10 -19 26 -18 287 0 303
14 11 119 13 1024 19 193 1 354 -2 357 -7z"/>
<path d="M2077 478 c-40 -31 -36 -115 8 -132 60 -23 115 10 115 69 0 45 -29
75 -73 75 -18 0 -41 -6 -50 -12z"/>
<path d="M4490 4043 c-69 -25 -160 -122 -193 -205 -53 -134 -57 -190 -57 -799
0 -307 -4 -560 -8 -563 -4 -2 -20 10 -35 29 -15 18 -56 48 -92 66 -60 29 -70
31 -147 27 -58 -3 -95 -11 -124 -26 -22 -11 -117 -97 -210 -190 -93 -93 -244
-233 -336 -310 -188 -160 -227 -202 -268 -287 -62 -126 -63 -140 -68 -612 l-3
-433 -55 0 c-94 0 -181 -54 -205 -127 -6 -18 -11 -110 -12 -205 -2 -146 1
-178 15 -204 23 -42 79 -90 120 -102 20 -6 301 -13 726 -17 l693 -7 52 26 c64
31 103 87 112 160 4 28 5 112 3 186 -4 157 -17 196 -87 245 -40 28 -49 30
-152 33 l-109 4 0 71 0 71 408 411 c362 364 412 418 444 480 58 112 71 178 70
345 -2 184 -40 1576 -46 1651 -8 111 -77 211 -182 264 -71 36 -184 44 -254 18z
m202 -172 c61 -42 73 -67 76 -161 18 -464 46 -1669 40 -1720 -5 -43 -20 -91
-44 -140 -35 -70 -64 -102 -456 -496 l-418 -420 0 -104 0 -103 -247 6 c-137 4
-312 7 -391 7 l-143 0 4 422 c4 448 6 469 55 563 31 59 50 79 247 246 99 84
246 219 326 300 80 80 155 152 167 158 11 6 44 11 73 11 46 0 55 -4 90 -39 34
-34 39 -44 39 -85 0 -26 -7 -61 -17 -79 -9 -18 -105 -122 -213 -232 -109 -110
-201 -210 -204 -222 -13 -42 28 -92 77 -93 53 0 438 384 546 546 27 39 59 100
72 135 23 64 23 66 29 679 5 553 8 621 24 670 25 78 62 138 99 161 42 27 122
22 169 -10z m-464 -3313 c17 -15 17 -277 -1 -302 -12 -17 -48 -17 -691 -10
-595 6 -679 9 -693 23 -14 13 -15 35 -9 154 3 77 9 144 13 150 8 13 1363 -1
1381 -15z"/>
<path d="M2940 470 c-45 -45 -13 -130 49 -130 44 0 62 10 76 43 15 36 3 82
-25 97 -31 16 -79 11 -100 -10z"/>
</g>
</svg>
