<?xml version="1.0" standalone="no"?>
<!DOCTYPE svg PUBLIC "-//W3C//DTD SVG 20010904//EN"
 "http://www.w3.org/TR/2001/REC-SVG-20010904/DTD/svg10.dtd">
<svg version="1.0" xmlns="http://www.w3.org/2000/svg"
 width="512.000000pt" height="512.000000pt" viewBox="0 0 512.000000 512.000000"
 preserveAspectRatio="xMidYMid meet">

<g transform="translate(0.000000,512.000000) scale(0.100000,-0.100000)"
fill="grey" stroke="none">
<path d="M887 5000 c-60 -11 -126 -49 -161 -94 -50 -67 -56 -100 -56 -336 l0
-218 -162 -4 c-159 -3 -164 -4 -217 -33 -29 -16 -66 -45 -82 -64 -63 -77 -59
39 -57 -1816 l3 -1690 22 -41 c27 -50 75 -97 122 -121 34 -17 93 -18 939 -21
l902 -2 0 -199 c0 -181 2 -201 19 -222 l19 -24 642 0 642 0 19 24 c17 21 19
41 19 222 l0 199 368 0 c411 0 431 3 496 66 20 19 46 54 59 77 21 40 22 56 25
279 l3 238 160 0 c171 0 198 6 264 55 19 15 48 54 65 88 l30 60 -1 1686 c0
1264 -3 1694 -12 1718 -24 65 -73 119 -133 149 l-59 29 -1915 1 c-1053 1
-1936 -2 -1963 -6z m3897 -151 c55 -43 56 -53 56 -379 l0 -300 -1233 0 -1233
0 -154 156 c-85 86 -163 162 -174 170 -17 11 -86 14 -378 14 l-358 0 -38 -34
-37 -34 -3 -136 -4 -136 -214 0 -214 0 0 300 c0 326 1 336 56 379 l27 21 1937
0 1937 0 27 -21z m-2648 -625 c84 -88 163 -163 181 -170 27 -12 254 -14 1278
-14 l1245 0 0 -1295 c0 -1414 4 -1327 -56 -1374 -26 -21 -32 -21 -688 -20
-465 0 -654 3 -636 11 14 5 40 16 58 24 17 8 41 28 53 46 42 68 42 70 -330
738 -188 338 -351 623 -362 633 -31 25 -92 22 -122 -5 -14 -13 -178 -300 -366
-639 -373 -673 -366 -659 -318 -730 15 -23 41 -41 77 -56 l55 -22 -661 -1
c-656 0 -662 0 -688 21 -60 47 -56 -40 -56 1374 l0 1295 225 0 c325 0 328 2
333 206 l4 134 313 0 313 0 148 -156z m-1466 -1398 c0 -1530 -4 -1435 60
-1516 18 -22 55 -51 88 -67 l57 -28 737 -3 737 -3 16 -51 c8 -29 15 -64 15
-80 0 -28 0 -28 -66 -28 -140 0 -174 -47 -174 -238 l0 -122 -882 0 c-686 0
-889 3 -908 13 -13 7 -35 28 -47 46 l-23 34 2 1678 3 1678 30 31 c40 42 69 48
223 49 l132 1 0 -1394z m2080 -464 l0 -158 -35 -17 c-113 -54 -127 -251 -24
-330 137 -103 329 -11 329 158 0 69 -33 131 -86 164 l-43 26 -1 160 c0 88 4
155 8 150 7 -8 505 -906 551 -993 10 -19 9 -23 -6 -28 -176 -55 -312 -231
-313 -406 l0 -38 -310 0 -310 0 0 38 c0 49 -24 142 -51 193 -43 85 -175 198
-250 214 -17 4 -29 10 -27 14 8 21 561 1011 564 1011 2 0 4 -71 4 -158z m114
-293 c36 -28 33 -83 -6 -112 -73 -54 -153 56 -82 112 34 27 54 26 88 0z m1456
-1064 c0 -240 -4 -260 -63 -295 -30 -19 -53 -20 -394 -20 l-363 0 0 122 c0
192 -33 238 -170 238 l-73 0 7 56 c3 31 13 69 21 85 l16 29 509 0 510 0 0
-215z m-950 -420 l0 -335 -550 0 -550 0 0 93 c0 52 3 202 7 335 l6 242 544 0
543 0 0 -335z"/>
<path d="M3545 4692 c-63 -29 -115 -105 -115 -167 0 -31 25 -90 51 -120 85
-97 242 -77 298 37 57 119 -15 250 -145 264 -36 3 -60 0 -89 -14z m103 -128
c26 -18 28 -50 5 -76 -38 -42 -105 0 -84 55 15 38 44 46 79 21z"/>
<path d="M4008 4700 c-104 -31 -158 -161 -109 -258 23 -46 46 -67 94 -87 87
-36 189 3 234 90 20 38 20 122 0 162 -40 77 -136 118 -219 93z m86 -136 c36
-35 13 -94 -35 -94 -47 0 -65 67 -27 94 28 20 43 20 62 0z"/>
<path d="M4435 4691 c-48 -22 -79 -54 -100 -103 -20 -48 -19 -84 4 -133 55
-122 204 -152 296 -60 92 92 62 241 -60 296 -51 23 -90 23 -140 0z m105 -131
c11 -11 20 -28 20 -37 0 -25 -30 -53 -56 -53 -23 0 -54 33 -54 57 0 18 37 53
55 53 8 0 24 -9 35 -20z"/>
<path d="M2633 3559 c-17 -5 -43 -23 -57 -40 -23 -27 -26 -40 -26 -105 l0 -74
-460 0 c-408 0 -460 2 -460 15 0 29 -38 91 -79 128 -129 116 -338 67 -406 -96
-22 -53 -19 -151 6 -203 23 -49 86 -110 135 -130 41 -17 133 -18 185 -2 50 15
114 69 140 119 l19 39 310 0 c171 0 310 -2 310 -4 0 -2 -30 -21 -67 -41 -270
-149 -491 -421 -592 -733 l-29 -87 -73 -5 c-141 -10 -149 -25 -149 -276 l0
-186 39 -39 39 -39 186 0 c270 0 278 6 284 229 6 189 -2 237 -43 278 -30 30
-39 33 -89 33 l-56 0 6 28 c4 15 20 61 36 102 122 313 388 566 707 675 94 32
101 31 101 -2 0 -40 20 -74 59 -100 32 -22 43 -23 207 -23 95 0 184 4 197 9
38 15 67 51 79 99 10 41 12 43 42 36 17 -4 72 -23 122 -44 252 -101 478 -309
600 -551 40 -80 84 -195 84 -219 0 -5 -22 -10 -49 -10 -61 0 -105 -33 -121
-88 -14 -51 -12 -328 3 -372 7 -19 27 -44 46 -57 32 -22 43 -23 223 -23 l188
0 38 34 37 34 3 186 c4 257 -11 286 -157 286 l-70 0 -17 58 c-9 31 -32 95 -52
142 -104 248 -270 445 -494 589 -47 31 -95 61 -105 68 -14 9 49 12 294 12 310
1 312 1 318 -20 11 -35 87 -111 130 -130 26 -12 64 -19 105 -19 119 0 213 67
245 174 19 63 19 90 -1 155 -51 173 -280 236 -415 114 -41 -37 -79 -99 -79
-128 0 -13 -52 -15 -460 -15 l-460 0 0 69 c0 82 -26 129 -80 148 -42 14 -329
16 -377 2z m328 -156 c0 -21 3 -86 5 -145 l5 -108 -144 0 -144 0 -7 136 c-3
74 -4 139 -1 145 4 5 68 9 146 9 l139 0 1 -37z m-1510 -6 c72 -48 76 -165 6
-207 -59 -36 -145 -20 -181 34 -9 14 -16 44 -16 67 0 104 106 163 191 106z
m2863 8 c43 -20 66 -63 66 -120 0 -40 -5 -52 -34 -81 -30 -30 -40 -34 -86 -34
-46 0 -56 4 -85 33 -43 43 -52 79 -34 131 25 73 102 104 173 71z m-2559 -1330
c4 -75 6 -137 4 -139 -2 -2 -68 -6 -146 -9 l-143 -6 0 38 c0 21 -3 86 -7 144
l-6 107 145 0 146 0 7 -135z m2425 -4 l0 -138 -137 -6 c-76 -3 -141 -3 -145
-1 -4 3 -8 68 -8 145 l0 139 145 0 145 0 0 -139z"/>
</g>
</svg>
