<?xml version="1.0" standalone="no"?>
<!DOCTYPE svg PUBLIC "-//W3C//DTD SVG 20010904//EN"
 "http://www.w3.org/TR/2001/REC-SVG-20010904/DTD/svg10.dtd">
<svg version="1.0" xmlns="http://www.w3.org/2000/svg"
 width="512.000000pt" height="512.000000pt" viewBox="0 0 512.000000 512.000000"
 preserveAspectRatio="xMidYMid meet">

<g transform="translate(0.000000,512.000000) scale(0.100000,-0.100000)"
fill="#00000" stroke="none">
<path d="M363 4900 c-170 -25 -321 -170 -353 -339 -6 -35 -10 -590 -10 -1580
0 -1281 3 -1536 14 -1586 34 -143 139 -256 284 -306 52 -18 95 -19 839 -19
l783 0 0 -28 c0 -15 -5 -66 -11 -112 -25 -203 -64 -327 -130 -411 -47 -58 -81
-77 -162 -90 -82 -13 -120 -48 -120 -109 0 -34 6 -48 32 -73 l31 -32 1000 0
1000 0 31 32 c26 25 32 39 32 73 0 61 -38 96 -120 109 -81 13 -115 32 -162 90
-67 85 -107 215 -131 416 -5 50 -10 100 -10 113 l0 22 783 0 c744 0 787 1 839
19 145 50 250 163 284 306 11 50 14 305 14 1586 0 990 -4 1545 -10 1580 -33
173 -182 314 -362 339 -76 11 -4310 11 -4385 0z m4327 -1700 l0 -1280 -2130 0
-2130 0 0 1280 0 1280 2130 0 2130 0 0 -1280z m-2030 -1520 c157 -80 143 -315
-22 -384 -135 -57 -287 47 -288 197 -1 162 164 261 310 187z"/>
</g>
</svg>
