<?xml version="1.0" standalone="no"?>
<!DOCTYPE svg PUBLIC "-//W3C//DTD SVG 20010904//EN"
 "http://www.w3.org/TR/2001/REC-SVG-20010904/DTD/svg10.dtd">
<svg version="1.0" xmlns="http://www.w3.org/2000/svg"
 width="512.000000pt" height="512.000000pt" viewBox="0 0 512.000000 512.000000"
 preserveAspectRatio="xMidYMid meet">

<g transform="translate(0.000000,512.000000) scale(0.100000,-0.100000)"
fill="white" stroke="none">
<path d="M1685 5109 c-137 -4 -295 -12 -350 -19 -404 -48 -691 -181 -926 -427
-257 -270 -366 -579 -399 -1123 -13 -217 -13 -1708 0 -1936 32 -564 142 -876
403 -1151 233 -245 536 -378 977 -429 290 -34 2063 -29 2375 6 407 46 681 165
918 398 221 218 353 507 402 882 46 346 46 2154 0 2502 -85 649 -419 1057
-994 1219 -173 48 -345 68 -688 79 -345 11 -1336 11 -1718 -1z m1840 -460
c706 -47 1014 -289 1099 -862 28 -183 39 -668 33 -1447 -5 -721 -10 -838 -43
-1045 -71 -447 -336 -714 -784 -789 -185 -31 -322 -37 -955 -42 -959 -9 -1457
10 -1681 62 -361 83 -590 312 -685 683 -52 203 -54 252 -54 1331 0 907 2 1019
18 1148 56 449 199 697 482 837 101 50 264 96 415 116 186 24 1822 31 2155 8z"/>
<path d="M3827 4216 c-214 -77 -276 -345 -116 -505 64 -63 120 -86 214 -86 67
0 89 4 137 28 101 50 158 137 166 253 7 103 -16 163 -87 235 -38 38 -72 61
-105 72 -59 20 -156 21 -209 3z"/>
<path d="M2330 3854 c-250 -45 -485 -165 -670 -341 -191 -182 -312 -390 -377
-650 -25 -97 -27 -126 -28 -293 0 -252 31 -396 131 -594 196 -390 567 -655
1003 -717 128 -18 352 -6 478 25 385 96 692 341 871 696 90 178 132 366 132
586 0 348 -124 653 -367 905 -198 204 -445 336 -717 384 -109 19 -350 18 -456
-1z m404 -459 c165 -34 302 -109 427 -234 158 -158 237 -336 247 -557 5 -141
-6 -220 -49 -340 -99 -273 -344 -480 -638 -540 -64 -12 -113 -15 -200 -11
-141 7 -206 24 -336 87 -216 104 -378 298 -446 532 -30 105 -37 279 -15 389
69 338 326 600 661 674 82 18 260 18 349 0z"/>
</g>
</svg>
