<?xml version="1.0" standalone="no"?>
<!DOCTYPE svg PUBLIC "-//W3C//DTD SVG 20010904//EN"
 "http://www.w3.org/TR/2001/REC-SVG-20010904/DTD/svg10.dtd">
<svg version="1.0" xmlns="http://www.w3.org/2000/svg"
 width="512.000000pt" height="512.000000pt" viewBox="0 0 512.000000 512.000000"
 preserveAspectRatio="xMidYMid meet">

<g transform="translate(0.000000,512.000000) scale(0.100000,-0.100000)"
fill="#000000" stroke="none">
<path d="M1635 5096 c-55 -25 -110 -81 -131 -132 -8 -19 -14 -65 -14 -104 l0
-70 -143 0 c-172 0 -220 -13 -282 -75 -77 -76 -76 -69 -73 -686 3 -535 3 -545
24 -584 28 -51 68 -91 119 -118 35 -18 61 -22 198 -25 l157 -4 0 -63 c0 -35 3
-71 6 -79 6 -15 -26 -16 -332 -14 l-338 3 -7 31 c-9 45 -43 89 -83 108 -29 14
-78 16 -329 16 -288 0 -295 0 -327 -22 -70 -48 -75 -64 -75 -222 0 -142 0
-143 29 -180 48 -64 61 -66 382 -66 276 0 288 1 325 22 44 24 69 58 79 103 l6
30 411 3 410 2 7 -77 c4 -43 8 -85 9 -94 1 -8 -287 -541 -640 -1185 -352 -643
-651 -1189 -664 -1214 -33 -64 -33 -176 0 -240 32 -61 67 -97 126 -128 43 -23
63 -27 135 -27 77 0 90 3 140 31 30 17 67 46 81 65 15 19 237 407 494 864 256
456 470 834 475 839 7 7 10 -284 10 -789 l0 -800 24 -50 c32 -70 101 -130 172
-151 81 -23 243 -16 300 14 66 34 101 69 131 130 l28 57 5 797 5 797 470 -837
c517 -922 519 -925 626 -956 113 -34 223 -9 296 66 89 91 108 210 54 323 -16
33 -315 582 -666 1220 -350 638 -636 1165 -636 1170 1 6 4 51 7 102 6 89 7 92
35 103 40 17 104 90 119 136 9 29 48 75 148 176 l135 137 148 -75 149 -74 305
0 304 0 15 -29 c22 -42 75 -91 121 -112 37 -17 77 -19 523 -19 l482 0 0 200
c0 110 -3 200 -6 200 -3 0 -113 18 -244 40 -131 22 -241 40 -244 40 -3 0 -6 7
-6 15 0 15 2 16 203 66 l127 31 0 314 0 313 -37 10 c-21 6 -95 24 -165 42 -83
20 -128 36 -128 45 0 17 -2 16 268 60 l232 38 0 198 0 198 -485 0 c-385 0
-492 -3 -518 -13 -47 -20 -95 -64 -118 -108 l-19 -39 -305 0 -305 0 -149 -74
-148 -75 -136 137 c-76 76 -137 143 -137 151 0 26 -54 112 -86 136 -71 54 -80
55 -573 55 l-456 0 -50 -24z m185 -311 l0 -165 245 0 245 0 0 165 0 165 142 0
c132 0 143 -2 165 -22 l23 -21 0 -859 0 -859 -25 -24 c-20 -21 -34 -25 -80
-25 l-55 0 0 495 0 495 -330 0 -330 0 0 -495 0 -495 -60 0 c-65 0 -94 17 -105
62 -3 13 -4 403 -3 866 l3 844 24 19 c17 14 39 19 82 19 l59 0 0 -165z m330
85 l0 -80 -85 0 -85 0 0 80 0 80 85 0 85 0 0 -80z m2800 -128 l0 -49 -227 -37
c-126 -21 -236 -40 -245 -42 -16 -5 -18 -21 -18 -153 l0 -149 128 -31 c70 -18
144 -36 165 -42 l37 -10 0 -183 0 -184 -127 -31 c-71 -18 -145 -36 -165 -42
l-38 -10 0 -149 c0 -83 3 -150 6 -150 8 0 422 -69 457 -76 25 -5 27 -9 27 -55
l0 -50 -386 3 -386 3 -24 28 -24 28 0 688 c0 725 -1 704 45 729 13 8 144 11
398 12 l377 0 0 -48z m-1980 -692 l0 -465 -80 -80 -80 -80 0 625 0 625 80 -80
80 -80 0 -465z m-1480 -5 l0 -575 -139 0 c-125 0 -141 2 -165 21 l-26 20 0
532 0 531 22 23 c21 22 28 23 165 23 l143 0 0 -575z m2470 495 l0 -80 -245 0
-245 0 0 80 0 80 245 0 245 0 0 -80z m-660 -495 l0 -525 -80 40 -80 40 0 445
0 445 78 39 c42 22 78 40 80 41 1 0 2 -236 2 -525z m660 165 l0 -80 -245 0
-245 0 0 80 0 80 245 0 245 0 0 -80z m-1650 -660 l0 -410 -165 0 -165 0 0 410
0 410 165 0 165 0 0 -410z m1650 330 l0 -80 -245 0 -245 0 0 80 0 80 245 0
245 0 0 -80z m0 -330 l0 -80 -245 0 -245 0 0 80 0 80 245 0 245 0 0 -80z
m-3300 -495 l0 -85 -245 0 -245 0 0 85 0 85 245 0 245 0 0 -85z m1820 -131 c0
-48 -13 -81 -39 -101 -12 -9 -91 -12 -294 -13 l-278 0 -24 25 c-21 20 -25 34
-25 80 l0 55 330 0 330 0 0 -46z m-660 -512 l0 -246 -467 -833 -468 -832 -143
-1 -143 0 29 53 c17 28 272 493 567 1032 655 1195 593 1085 610 1078 13 -4 15
-45 15 -251z m1275 -818 c325 -592 592 -1081 593 -1086 2 -5 -57 -7 -138 -6
l-142 3 -464 825 -464 825 0 251 c0 231 2 264 19 264 3 0 272 -485 596 -1076z
m-785 -24 l0 -1070 -165 0 -165 0 0 1070 0 1070 165 0 165 0 0 -1070z m-1530
-1247 c0 -5 -13 -31 -30 -59 -42 -74 -71 -94 -136 -94 -45 0 -57 4 -83 31 -25
24 -31 39 -31 73 0 24 3 46 7 49 9 10 273 9 273 0z m1530 -39 c0 -39 -5 -51
-34 -80 -34 -34 -34 -34 -128 -34 -103 0 -127 9 -153 60 -8 16 -15 45 -15 65
l0 35 165 0 165 0 0 -46z m1486 21 c9 -37 -3 -74 -36 -106 -24 -25 -36 -29
-82 -29 -32 0 -62 6 -76 15 -18 13 -92 126 -92 141 0 2 63 4 140 4 l140 0 6
-25z"/>
</g>
</svg>
