<?xml version="1.0" standalone="no"?>
<!DOCTYPE svg PUBLIC "-//W3C//DTD SVG 20010904//EN"
 "http://www.w3.org/TR/2001/REC-SVG-20010904/DTD/svg10.dtd">
<svg version="1.0" xmlns="http://www.w3.org/2000/svg"
 width="512.000000pt" height="512.000000pt" viewBox="0 0 512.000000 512.000000"
 preserveAspectRatio="xMidYMid meet">

<g transform="translate(0.000000,512.000000) scale(0.100000,-0.100000)"
fill="grey" stroke="none">
<path d="M21 4504 l-21 -27 0 -1672 c0 -1632 0 -1673 19 -1696 l19 -24 561 -3
c309 -1 561 -5 561 -9 0 -3 -52 -91 -115 -193 -122 -199 -134 -231 -95 -270
19 -19 33 -20 210 -20 169 0 192 2 208 18 10 10 80 120 157 245 l138 227 897
0 897 0 138 -227 c77 -125 147 -235 157 -245 16 -16 39 -18 208 -18 177 0 191
1 210 20 39 39 27 71 -95 270 -63 102 -115 190 -115 193 0 4 252 8 561 9 l561
3 19 24 c18 22 19 51 19 878 l0 854 -25 24 c-31 32 -69 32 -100 0 l-25 -24 0
-556 0 -555 -274 0 c-246 0 -276 -2 -295 -18 -33 -26 -31 -79 3 -109 27 -23
29 -23 297 -23 l269 0 0 -175 0 -175 -2410 0 -2410 0 0 175 0 175 1984 0 1983
0 27 21 c33 26 36 79 6 109 -19 19 -33 20 -340 20 l-320 0 0 79 0 80 231 3
c229 3 231 3 250 27 17 21 19 41 19 221 0 184 -1 199 -21 224 l-20 26 -174 0
-174 0 34 50 c67 100 78 146 83 340 4 167 3 176 -18 203 -18 23 -29 27 -74 27
-51 0 -53 1 -87 47 -19 25 -38 52 -43 59 -6 8 9 45 47 112 31 55 57 109 57
120 0 35 -38 72 -74 72 -41 0 -61 -21 -116 -123 -33 -61 -46 -77 -59 -72 -140
58 -277 70 -387 37 -119 -36 -234 -118 -301 -214 -24 -36 -29 -38 -79 -38 -45
0 -55 -4 -74 -27 -21 -27 -22 -36 -18 -203 5 -194 16 -240 83 -340 l34 -50
-240 0 -239 0 0 879 c0 873 0 878 -21 905 l-20 26 -749 0 -749 0 -20 -26 c-19
-24 -21 -40 -21 -174 0 -134 2 -150 21 -174 28 -36 80 -36 108 0 18 23 21 41
21 125 l0 99 640 0 640 0 0 -680 0 -680 -640 0 -640 0 0 429 c0 404 -1 430
-19 452 -26 32 -86 32 -112 0 -18 -22 -19 -51 -19 -602 l0 -579 -200 0 -200 0
0 995 0 995 2410 0 2410 0 0 -620 0 -621 25 -24 c31 -32 69 -32 100 0 l25 24
0 669 c0 662 0 670 -21 696 l-20 26 -2519 0 -2519 0 -20 -26z m3251 -1412 c35
-17 74 -43 88 -57 l23 -25 -277 0 c-180 0 -275 3 -271 10 12 20 98 73 148 91
82 31 205 23 289 -19z m298 -330 c0 -157 -38 -245 -132 -310 -75 -52 -131 -62
-333 -62 -202 0 -258 10 -333 62 -94 65 -132 153 -132 310 l0 98 465 0 465 0
0 -98z m-1590 -297 l0 -75 -640 0 -640 0 0 75 0 75 640 0 640 0 0 -75z m1860
-325 l0 -100 -1125 0 c-1112 0 -1125 0 -1145 -20 -30 -30 -27 -83 6 -109 26
-21 34 -21 700 -21 l674 0 0 -80 0 -80 -1400 0 -1400 0 0 80 0 80 569 0 c560
0 569 0 595 21 33 26 36 79 6 109 -20 20 -33 20 -595 20 l-575 0 0 100 0 100
1845 0 1845 0 0 -100z m-500 -330 l0 -80 -120 0 -120 0 0 80 0 80 120 0 120 0
0 -80z m-1860 -737 c0 -5 -45 -80 -99 -168 l-99 -160 -72 -3 c-40 -2 -70 1
-68 6 1 4 48 81 102 170 l99 162 68 0 c38 0 69 -3 69 -7z m2396 -155 c54 -89
101 -166 102 -170 2 -5 -28 -8 -68 -6 l-72 3 -99 160 c-54 88 -99 163 -99 168
0 4 31 7 69 7 l68 0 99 -162z"/>
<path d="M3930 4223 c-34 -13 -50 -37 -50 -73 0 -51 24 -70 88 -70 l52 0 0
-134 c0 -74 5 -147 10 -162 21 -55 68 -69 113 -33 26 20 27 22 29 172 l3 152
56 5 c31 3 63 11 72 19 25 20 22 83 -4 107 -19 17 -40 19 -188 21 -91 1 -173
-1 -181 -4z"/>
<path d="M4465 4218 c-28 -15 -45 -38 -45 -61 0 -11 30 -101 66 -201 69 -187
92 -226 138 -226 46 0 64 31 131 222 79 228 80 235 24 264 -25 12 -33 13 -63
0 -30 -13 -37 -23 -61 -95 -15 -45 -30 -81 -33 -81 -4 0 -20 37 -36 81 -25 71
-33 83 -62 95 -39 16 -34 16 -59 2z"/>
<path d="M1255 3886 c-112 -28 -206 -103 -253 -204 -24 -51 -27 -69 -27 -162
0 -90 4 -112 24 -153 37 -75 104 -142 179 -179 61 -30 74 -33 162 -33 82 0
103 4 152 27 76 35 138 95 179 170 33 60 34 68 34 168 0 93 -3 112 -27 162
-48 104 -149 182 -266 207 -65 13 -92 13 -157 -3z m151 -151 c83 -24 154 -113
154 -191 l0 -37 -40 6 c-95 12 -177 97 -188 193 -5 51 -2 52 74 29z m-216 -96
c0 -8 11 -38 25 -65 l25 -49 -50 -50 c-27 -27 -53 -46 -57 -41 -4 4 -9 38 -11
76 -4 60 -1 75 24 119 26 50 43 53 44 10z m195 -239 c21 -11 54 -23 72 -26 43
-8 38 -22 -18 -52 -37 -20 -55 -23 -111 -20 -37 2 -70 7 -74 11 -6 5 81 107
91 107 0 0 18 -9 40 -20z"/>
<path d="M1101 2964 c-26 -33 -27 -65 -2 -95 19 -24 20 -24 246 -24 226 0 227
0 246 24 25 30 24 62 -2 95 l-20 26 -224 0 -224 0 -20 -26z"/>
<path d="M1960 1460 c-30 -30 -27 -83 6 -109 26 -21 35 -21 594 -21 559 0 568
0 594 21 33 26 36 79 6 109 -20 20 -33 20 -600 20 -567 0 -580 0 -600 -20z"/>
</g>
</svg>
