<?xml version="1.0" standalone="no"?>
<!DOCTYPE svg>
<svg version="1.0" xmlns="http://www.w3.org/2000/svg"
    width="512.000000pt" height="512.000000pt" viewBox="0 0 512.000000 512.000000"
    preserveAspectRatio="xMidYMid meet">

    <g transform="translate(0.000000,512.000000) scale(0.100000,-0.100000)"
        fill="grey" stroke="none">
        <path
            d="M74 5013 c-12 -2 -32 -15 -45 -29 l-24 -26 -3 -541 c-2 -395 1 -549
9 -570 26 -61 -164 -57 2549 -57 2713 0 2523 -4 2549 57 8 21 11 175 9 570
l-3 543 -28 27 -27 28 -2483 1 c-1365 1 -2492 -1 -2503 -3z m4846 -608 l0
-415 -2360 0 -2360 0 0 415 0 415 2360 0 2360 0 0 -415z" />
        <path
            d="M4223 4742 c-137 -49 -220 -174 -211 -320 12 -204 209 -341 410 -283
l48 13 56 -51 c47 -44 61 -51 96 -51 78 0 125 86 82 150 -10 14 -33 42 -52 62
-34 36 -35 38 -24 80 25 97 19 176 -18 248 -68 131 -246 202 -387 152z m168
-205 c62 -42 71 -124 18 -176 -96 -96 -251 23 -182 140 19 32 65 58 104 59 14
0 41 -10 60 -23z" />
        <path
            d="M961 4289 c-50 -49 -38 -124 24 -154 29 -13 156 -15 1079 -15 1126 0
1099 -1 1126 50 23 42 15 92 -19 122 l-31 28 -1074 0 -1074 0 -31 -31z" />
        <path d="M3419 4291 c-75 -76 4 -201 102 -161 41 17 59 47 59 96 0 85 -100
125 -161 65z" />
        <path
            d="M80 3637 c-24 -8 -41 -23 -52 -47 -17 -33 -18 -103 -18 -1030 0 -927
1 -997 18 -1030 11 -24 28 -39 52 -47 51 -17 3049 -17 3100 0 24 8 41 23 52
47 17 33 18 103 18 1030 0 927 -1 997 -18 1030 -11 24 -28 39 -52 47 -51 17
-3049 17 -3100 0z m2970 -999 c0 -509 -4 -808 -9 -803 -6 6 -184 242 -396 525
-212 283 -396 520 -408 527 -27 15 -72 16 -96 3 -10 -5 -163 -203 -340 -439
l-323 -430 -76 88 c-43 48 -147 170 -232 269 -161 188 -198 218 -250 207 -34
-8 -69 -45 -430 -465 -139 -162 -259 -302 -267 -310 -11 -12 -13 120 -13 813
l0 827 1420 0 1420 0 0 -812z m-777 -113 l77 -105 -161 0 -161 0 24 33 c14 17
49 65 79 105 29 39 56 72 59 72 3 -1 40 -48 83 -105z m-1125 -429 c111 -129
202 -237 202 -240 0 -4 -30 -47 -67 -96 l-68 -90 -418 0 c-321 0 -418 3 -415
12 5 15 551 648 559 648 3 0 97 -105 207 -234z m1547 -136 c108 -144 198 -267
202 -275 4 -13 -89 -15 -712 -15 -570 0 -715 3 -709 13 4 6 46 63 92 125 l84
112 247 0 c214 0 251 2 281 18 48 23 66 63 51 112 -19 65 -36 70 -241 70 -99
0 -180 2 -180 5 0 3 15 26 33 50 l32 44 312 1 313 0 195 -260z" />
        <path
            d="M1263 3311 c-92 -32 -160 -95 -205 -189 -73 -152 -17 -345 125 -436
70 -45 114 -57 195 -57 264 1 430 276 310 514 -29 57 -102 125 -166 155 -75
34 -184 40 -259 13z m188 -203 c75 -42 101 -151 51 -217 -65 -88 -210 -81
-259 12 -71 136 75 280 208 205z" />
        <path
            d="M3450 3637 c-24 -8 -41 -23 -52 -47 -17 -33 -18 -103 -18 -1026 0
-681 3 -1001 11 -1022 6 -17 23 -39 37 -49 26 -17 70 -18 822 -18 750 0 797 1
823 18 16 10 32 29 37 43 16 41 13 2023 -3 2054 -7 14 -28 33 -47 42 -32 17
-91 18 -805 17 -569 0 -779 -3 -805 -12z m1470 -1077 l0 -890 -667 2 -668 3
-3 875 c-1 481 0 881 3 888 3 9 147 12 670 12 l665 0 0 -890z" />
        <path
            d="M3749 3251 c-51 -51 -33 -137 33 -160 20 -7 183 -11 470 -11 488 0
497 1 522 62 19 44 10 83 -26 113 l-30 25 -470 0 -470 0 -29 -29z" />
        <path
            d="M3768 2865 c-34 -19 -48 -44 -48 -87 0 -41 20 -71 57 -87 21 -8 155
-11 491 -9 l462 3 26 27 c37 37 37 99 0 136 l-26 27 -468 2 c-398 2 -471 0
-494 -12z" />
        <path
            d="M3780 2469 c-61 -24 -80 -105 -36 -156 l24 -28 476 -3 475 -3 31 28
c24 22 32 38 33 65 1 42 -24 85 -59 98 -34 13 -911 12 -944 -1z" />
        <path
            d="M3768 2064 c-85 -46 -51 -184 45 -184 43 0 92 38 100 77 8 44 -17 92
-57 108 -43 18 -54 18 -88 -1z" />
        <path
            d="M4160 2069 c-65 -26 -81 -110 -31 -160 l29 -29 280 0 280 0 30 25
c36 30 45 69 26 113 -23 57 -51 62 -336 61 -140 0 -264 -5 -278 -10z" />
        <path
            d="M63 1318 c-52 -25 -53 -35 -53 -597 0 -583 0 -579 64 -606 30 -13
152 -15 808 -15 716 0 776 1 808 18 19 9 40 28 47 42 16 31 19 1064 4 1103 -6
14 -20 35 -32 46 -23 21 -24 21 -823 20 -543 0 -808 -4 -823 -11z m1487 -603
l0 -415 -670 0 -670 0 0 415 0 415 670 0 670 0 0 -415z" />
        <path
            d="M1929 1301 l-29 -29 0 -555 0 -554 26 -26 c14 -15 40 -29 58 -32 17
-3 716 -4 1553 -3 l1523 3 27 28 28 27 3 538 c1 295 0 548 -3 560 -3 13 -18
35 -32 48 l-26 24 -1549 0 -1550 0 -29 -29z m2991 -586 l0 -415 -1410 0 -1410
0 0 415 0 415 1410 0 1410 0 0 -415z" />
        <path
            d="M2403 801 c-83 -51 -45 -181 53 -181 50 0 94 45 94 95 0 47 -13 71
-50 90 -38 20 -58 19 -97 -4z" />
        <path
            d="M2793 805 c-64 -27 -76 -110 -24 -157 l31 -28 876 0 876 0 29 29 c52
53 33 135 -38 162 -14 5 -367 9 -871 9 -697 -1 -853 -3 -879 -15z" />
    </g>
</svg>